<svg width="63" height="31" viewBox="0 0 63 31" fill="none" xmlns="http://www.w3.org/2000/svg">
<path d="M16.7983 30.7469L20.7046 25.8656L8.12959 15.8063L20.7046 5.74688L16.7983 0.865625L1.17334 13.3656C0.807233 13.6584 0.511679 14.0298 0.30857 14.4522C0.10546 14.8747 0 15.3375 0 15.8063C0 16.275 0.10546 16.7378 0.30857 17.1603C0.511679 17.5827 0.807233 17.9541 1.17334 18.2469L16.7983 30.7469ZM45.7046 0.865625L41.7983 5.74688L54.3733 15.8063L41.7983 25.8656L45.7046 30.7469L61.3296 18.2469C61.6957 17.9541 61.9912 17.5827 62.1944 17.1603C62.3975 16.7378 62.5029 16.275 62.5029 15.8063C62.5029 15.3375 62.3975 14.8747 62.1944 14.4522C61.9912 14.0298 61.6957 13.6584 61.3296 13.3656L45.7046 0.865625Z" fill="#00C4F0"/>
</svg>
