<svg width="63" height="59" viewBox="0 0 63 59" fill="none" xmlns="http://www.w3.org/2000/svg">
<path d="M17.0469 44.4406L20.9531 39.5594L8.37813 29.5L20.9531 19.4406L17.0469 14.5594L1.42188 27.0594C1.05577 27.3521 0.760214 27.7235 0.557105 28.146C0.353995 28.5684 0.248535 29.0312 0.248535 29.5C0.248535 29.9687 0.353995 30.4315 0.557105 30.854C0.760214 31.2765 1.05577 31.6478 1.42188 31.9406L17.0469 44.4406ZM45.9531 14.5594L42.0469 19.4406L54.6219 29.5L42.0469 39.5594L45.9531 44.4406L61.5781 31.9406C61.9442 31.6478 62.2398 31.2765 62.4429 30.854C62.646 30.4315 62.7515 29.9687 62.7515 29.5C62.7515 29.0312 62.646 28.5684 62.4429 28.146C62.2398 27.7235 61.9442 27.3521 61.5781 27.0594L45.9531 14.5594ZM40.8 2.04998L28.3 58.3L22.1969 56.9437L34.6969 0.693726L40.8 2.04998Z" fill="#E3E807"/>
</svg>
