<svg width="68" height="68" viewBox="0 0 68 68" fill="none" xmlns="http://www.w3.org/2000/svg">
<path d="M40.6667 0.666664H7.33332C5.56521 0.666664 3.86952 1.36904 2.61928 2.61929C1.36904 3.86953 0.666656 5.56522 0.666656 7.33333V40.6667H7.33332V7.33333H40.6667V0.666664ZM54 14H20.6667C18.8985 14 17.2029 14.7024 15.9526 15.9526C14.7024 17.2029 14 18.8986 14 20.6667V54H20.6667V20.6667H54V14ZM60.6667 27.3333H47.3333H34C32.2319 27.3333 30.5362 28.0357 29.2859 29.286C28.0357 30.5362 27.3333 32.2319 27.3333 34V60.6667C27.3333 62.4348 28.0357 64.1305 29.2859 65.3807C30.5362 66.6309 32.2319 67.3333 34 67.3333H60.6667C64.3333 67.3333 67.3333 64.3333 67.3333 60.6667V34C67.3333 30.3333 64.3333 27.3333 60.6667 27.3333Z" fill="#00C4F0"/>
</svg>
