<svg width="80" height="80" viewBox="0 0 80 80" fill="none" xmlns="http://www.w3.org/2000/svg">
<path d="M0 20C0 20 0 10 10 10H70C70 10 80 10 80 20V50C80 50 80 60 70 60H50C50 63.335 50.415 65.835 51.25 67.5H55C55.663 67.5 56.2989 67.7634 56.7678 68.2322C57.2366 68.7011 57.5 69.337 57.5 70C57.5 70.663 57.2366 71.2989 56.7678 71.7678C56.2989 72.2366 55.663 72.5 55 72.5H25C24.337 72.5 23.7011 72.2366 23.2322 71.7678C22.7634 71.2989 22.5 70.663 22.5 70C22.5 69.337 22.7634 68.7011 23.2322 68.2322C23.7011 67.7634 24.337 67.5 25 67.5H28.75C29.585 65.835 30 63.335 30 60H10C10 60 0 60 0 50V20ZM6.99 15.725C6.44078 16.1074 6.00259 16.6284 5.72 17.235C5.2938 18.1156 5.04895 19.0729 5 20.05V50C5 51.625 5.39 52.51 5.725 53.01C6.075 53.535 6.575 53.95 7.235 54.28C8.07768 54.6882 8.99086 54.9309 9.925 54.995L10.05 55H70C71.625 55 72.51 54.61 73.01 54.275C73.5592 53.8926 73.9974 53.3716 74.28 52.765C74.6882 51.9223 74.9309 51.0091 74.995 50.075L75 49.95V20C75 18.375 74.61 17.49 74.275 16.99C73.8928 16.4406 73.3718 16.0024 72.765 15.72C71.8844 15.2938 70.9271 15.0489 69.95 15H10C8.375 15 7.49 15.39 6.99 15.725V15.725Z" fill="black"/>
<path d="M25.8667 35.2H39.4667V48.8H25.8667V35.2Z" fill="black"/>
<path d="M39.4667 21.6H53.0667V35.2H39.4667V21.6Z" fill="black"/>
</svg>
